<svg width="140" height="32" viewBox="0 0 140 32" fill="none" xmlns="http://www.w3.org/2000/svg">
<path d="M30.5568 11C30.9523 11 31.0841 11.1421 31.0841 11.5249V20.1849H35.5546C35.939 20.1849 36.0818 20.327 36.0818 20.7097V21.4752C36.0818 21.8579 35.939 22 35.5546 22H29.6671C29.2827 22 29.1289 21.8579 29.1289 21.4752V11.5249C29.1289 11.1421 29.2827 11 29.6671 11H30.5568Z" fill="#4A5D69"/>
<path d="M40.0557 14.8836C40.0557 12.459 41.6871 11 44.5254 11C47.3637 11 48.9951 12.459 48.9951 14.8836V18.1164C48.9951 20.541 47.3525 22 44.5254 22C41.6983 22 40.0557 20.541 40.0557 18.1164V14.8836ZM47.1178 14.8836C47.1178 13.5191 46.2127 12.7844 44.5813 12.7844C42.9498 12.7844 42.0559 13.5296 42.0559 14.8836V18.1374C42.0559 19.5124 42.9498 20.2366 44.5813 20.2366C46.2127 20.2366 47.1178 19.4809 47.1178 18.1374V14.8836Z" fill="#4A5D69"/>
<path d="M62.3681 15.4913C62.8007 15.4913 62.9005 15.6401 62.9005 16.0405V18.2141C62.9122 18.7261 62.8127 19.2343 62.6093 19.7015C62.4059 20.1687 62.1037 20.583 61.7249 20.914C60.7841 21.6868 59.598 22.0702 58.3979 21.9894C55.5256 21.9894 53.9619 20.3992 53.9619 17.7565V14.21C53.9619 11.6016 55.5811 10 58.3979 10C60.6159 10 62.0576 10.9038 62.6676 12.7113C62.7017 12.7793 62.72 12.8544 62.721 12.9309C62.722 13.0074 62.7057 13.0831 62.6734 13.152C62.6411 13.2208 62.5937 13.2809 62.5349 13.3276C62.4762 13.3742 62.4077 13.4061 62.3349 13.4206L61.4699 13.7295C61.0928 13.8668 60.9375 13.7867 60.8044 13.3863C60.6207 12.8977 60.2844 12.4861 59.8485 12.2168C59.4127 11.9474 58.9022 11.8356 58.3979 11.8991C56.7677 11.8991 55.8805 12.7113 55.8805 14.1871V17.8251C55.8805 19.3238 56.7788 20.1132 58.3979 20.1132C60.0171 20.1132 61.0152 19.3467 61.0152 18.2256V17.379H58.6086C58.2094 17.379 58.0652 17.2188 58.0652 16.8184V16.0405C58.0652 15.6401 58.2094 15.4913 58.6086 15.4913H62.3681Z" fill="#4A5D69"/>
<path d="M67.8672 14.8836C67.8672 12.459 69.4986 11 72.3369 11C75.1752 11 76.8067 12.459 76.8067 14.8836V18.1164C76.8067 20.541 75.164 22 72.3369 22C69.5098 22 67.8672 20.541 67.8672 18.1164V14.8836ZM74.9182 14.8836C74.9182 13.5191 74.0131 12.7844 72.3928 12.7844C70.7725 12.7844 69.8562 13.5296 69.8562 14.8836V18.1374C69.8562 19.5124 70.7613 20.2366 72.3928 20.2366C74.0242 20.2366 74.9182 19.4809 74.9182 18.1374V14.8836Z" fill="#4A5D69"/>
<path d="M81.7734 11.3171C81.7734 11.0765 81.8416 11 82.0558 11H82.5038C82.718 11 82.7667 11.0765 82.7667 11.3171V21.6829C82.7667 21.9235 82.7667 22 82.5038 22H82.0558C81.8416 22 81.7734 21.9235 81.7734 21.6829V11.3171Z" fill="#4A5D69"/>
<path d="M93.187 11C94.1112 11 94.9976 11.3617 95.6511 12.0056C96.3046 12.6495 96.6718 13.5228 96.6718 14.4334C96.6718 15.344 96.3046 16.2173 95.6511 16.8612C94.9976 17.5051 94.1112 17.8668 93.187 17.8668H89.8576V21.6829C89.8576 21.9235 89.8021 22 89.569 22H89.0474C88.8144 22 88.7256 21.9235 88.7256 21.6829V11.3171C88.7256 11.0765 88.8144 11 89.0474 11H93.187ZM93.0871 16.7843C93.4048 16.7843 93.7194 16.7226 94.013 16.6028C94.3065 16.4831 94.5732 16.3075 94.7979 16.0861C95.0225 15.8648 95.2007 15.602 95.3223 15.3128C95.4439 15.0236 95.5065 14.7136 95.5065 14.4006C95.5065 14.0876 95.4439 13.7776 95.3223 13.4884C95.2007 13.1992 95.0225 12.9364 94.7979 12.7151C94.5732 12.4937 94.3065 12.3181 94.013 12.1983C93.7194 12.0786 93.4048 12.0169 93.0871 12.0169H89.7577V16.7843H93.0871Z" fill="#4A5D69"/>
<path d="M106.078 11.0227C106.971 10.9338 107.872 11.1072 108.647 11.5173C109.422 11.9273 110.03 12.5521 110.38 13.2989C110.473 13.466 110.38 13.6017 110.195 13.6853L109.686 13.8941C109.478 13.9672 109.397 13.9567 109.27 13.7583C109.008 13.2041 108.557 12.7395 107.983 12.4317C107.41 12.1238 106.742 11.9888 106.078 12.046C104.123 12.046 103.059 12.7455 103.059 13.9985C103.048 14.3814 103.19 14.7551 103.46 15.0506C103.73 15.3462 104.109 15.5436 104.528 15.6064C105.15 15.7896 105.795 15.9018 106.448 15.9406C107.238 15.9786 108.018 16.1229 108.761 16.3686C109.331 16.5314 109.821 16.8662 110.15 17.3168C110.478 17.7674 110.625 18.3064 110.565 18.8432C110.565 20.7957 108.992 21.9756 106.101 21.9756C105.152 22.0735 104.195 21.8751 103.389 21.4134C102.583 20.9518 101.977 20.2547 101.671 19.4384C101.651 19.4011 101.64 19.3603 101.639 19.3188C101.638 19.2773 101.647 19.2361 101.666 19.1982C101.685 19.1603 101.713 19.1266 101.747 19.0995C101.782 19.0724 101.823 19.0527 101.868 19.0416L102.377 18.8745C102.417 18.8597 102.46 18.8527 102.503 18.8537C102.546 18.8547 102.589 18.8639 102.628 18.8806C102.667 18.8973 102.702 18.9211 102.73 18.9507C102.759 18.9802 102.78 19.0147 102.793 19.052C103.052 19.6419 103.512 20.142 104.106 20.4799C104.701 20.8179 105.4 20.976 106.101 20.9314C108.287 20.9314 109.362 20.2423 109.362 18.8432C109.383 18.4754 109.258 18.113 109.01 17.8205C108.762 17.528 108.408 17.3243 108.009 17.2457C107.411 17.0846 106.794 16.9864 106.17 16.9534L104.921 16.8072C104.53 16.7323 104.144 16.6382 103.764 16.5253C103.39 16.423 103.04 16.2564 102.735 16.0345C102.428 15.7837 102.186 15.475 102.027 15.1304C101.867 14.7858 101.793 14.4136 101.81 14.0403C101.891 12.213 103.406 11.0227 106.078 11.0227Z" fill="#4A5D69"/>
<path d="M115.76 18.112C115.81 18.8694 116.175 19.5809 116.78 20.1012C117.385 20.6214 118.184 20.9111 119.016 20.9111C119.847 20.9111 120.647 20.6214 121.252 20.1012C121.857 19.5809 122.221 18.8694 122.271 18.112V11.3106C122.271 11.075 122.353 11 122.611 11H123.151C123.409 11 123.491 11.075 123.491 11.3106V18.1013C123.491 20.5326 121.919 22 119.021 22C116.124 22 114.552 20.5326 114.552 18.1013V11.3106C114.552 11.075 114.634 11 114.88 11H115.432C115.678 11 115.76 11.075 115.76 11.3106V18.112Z" fill="#4A5D69"/>
<path d="M139.067 11.0019C139.307 11.0019 139.383 11.0784 139.383 11.3189V21.683C139.383 21.9235 139.307 22 139.067 22H138.61C138.381 22 138.305 21.9235 138.305 21.683V15.3749C138.304 14.4571 138.366 13.5403 138.49 12.6308H138.425C138.084 13.4625 137.688 14.2697 137.237 15.0469L134.896 19.1903C134.867 19.2622 134.817 19.3237 134.753 19.3666C134.689 19.4096 134.613 19.432 134.536 19.4309H134.231C134.153 19.4312 134.076 19.4087 134.011 19.366C133.945 19.3233 133.893 19.2622 133.861 19.1903L131.487 15.0032C131.065 14.2371 130.701 13.4405 130.398 12.6199H130.332C130.444 13.5377 130.502 14.4612 130.507 15.3858V21.683C130.507 21.9235 130.43 22 130.191 22H129.766C129.526 22 129.45 21.9235 129.45 21.683V11.3189C129.45 11.0784 129.526 11.0019 129.766 11.0019H130.158C130.248 10.9935 130.338 11.0132 130.416 11.0582C130.494 11.1032 130.556 11.1714 130.594 11.2533L134.406 18.0534L138.196 11.3189C138.316 11.0893 138.381 11.0565 138.621 11.0565L139.067 11.0019Z" fill="#4A5D69"/>
<path d="M10.514 19.9817V28.1025C10.514 28.4138 10.3855 28.7123 10.1568 28.9325C9.92803 29.1526 9.61779 29.2762 9.29429 29.2762C8.9708 29.2762 8.66055 29.1526 8.43181 28.9325C8.20306 28.7123 8.07455 28.4138 8.07455 28.1025V19.993C8.41416 20.2316 8.82137 20.3649 9.24177 20.3749C9.70006 20.3875 10.149 20.2487 10.514 19.9817ZM20.9023 17.6343C20.5927 17.6343 20.2958 17.7526 20.0769 17.9632C19.858 18.1739 19.7351 18.4596 19.7351 18.7575V20.1727C19.7351 20.484 19.8636 20.7825 20.0923 21.0027C20.3211 21.2228 20.6313 21.3464 20.9548 21.3464C21.2783 21.3464 21.5885 21.2228 21.8173 21.0027C22.046 20.7825 22.1745 20.484 22.1745 20.1727V18.8136C22.1836 18.6526 22.1566 18.4915 22.0952 18.3414C22.0338 18.1913 21.9395 18.0557 21.8188 17.9438C21.6981 17.8319 21.5538 17.7464 21.3956 17.6929C21.2374 17.6395 21.0692 17.6195 20.9023 17.6343ZM5.42496 23.0593C5.00496 23.0472 4.59838 22.9142 4.25775 22.6774V30.8206C4.25775 31.1334 4.38687 31.4334 4.61671 31.6546C4.84655 31.8757 5.15828 32 5.48332 32C5.80837 32 6.1201 31.8757 6.34994 31.6546C6.57978 31.4334 6.7089 31.1334 6.7089 30.8206V22.7336C6.32775 22.9707 5.87804 23.0848 5.42496 23.0593ZM17.0971 15.1969C16.939 15.1893 16.781 15.2127 16.6325 15.2657C16.4841 15.3188 16.3485 15.4003 16.2338 15.5054C16.1192 15.6104 16.0279 15.7368 15.9657 15.8769C15.9034 16.017 15.8714 16.1678 15.8716 16.3201V22.5763C15.8716 22.8891 16.0007 23.1891 16.2305 23.4103C16.4604 23.6315 16.7721 23.7557 17.0971 23.7557C17.4222 23.7557 17.7339 23.6315 17.9638 23.4103C18.1936 23.1891 18.3227 22.8891 18.3227 22.5763V16.3987C18.332 16.2366 18.3047 16.0745 18.2427 15.9236C18.1806 15.7726 18.0853 15.6364 17.9632 15.5243C17.8412 15.4122 17.6954 15.3269 17.5358 15.2743C17.3762 15.2216 17.2066 15.2029 17.0388 15.2194L17.0971 15.1969ZM13.222 17.6006C12.7823 17.5977 12.3544 17.4643 11.9964 17.2187V25.3843C11.9964 25.6971 12.1255 25.9971 12.3554 26.2183C12.5852 26.4395 12.8969 26.5637 13.222 26.5637C13.547 26.5637 13.8588 26.4395 14.0886 26.2183C14.3184 25.9971 14.4476 25.6971 14.4476 25.3843V17.2299C14.0773 17.4953 13.6252 17.6337 13.1636 17.623L13.222 17.6006ZM2.77538 23.8568V1.04458C2.7723 0.76651 2.65535 0.500841 2.44992 0.305261C2.24449 0.109682 1.96717 -1.57345e-05 1.67819 1.6928e-09H1.4214C1.13242 -1.57345e-05 0.855106 0.109682 0.649676 0.305261C0.444246 0.500841 0.327293 0.76651 0.324219 1.04458V23.8568C0.324219 24.1368 0.439815 24.4054 0.645577 24.6034C0.85134 24.8014 1.13041 24.9126 1.4214 24.9126H1.67819C1.96919 24.9126 2.24826 24.8014 2.45402 24.6034C2.65978 24.4054 2.77538 24.1368 2.77538 23.8568ZM5.55336 22.1945H5.29657C5.00558 22.1945 4.7265 22.0832 4.52074 21.8852C4.31498 21.6872 4.19939 21.4187 4.19939 21.1386V3.76273C4.20246 3.48466 4.31941 3.21899 4.52484 3.02341C4.73027 2.82783 5.00759 2.71813 5.29657 2.71815H5.55336C5.84234 2.71813 6.11966 2.82783 6.32509 3.02341C6.53052 3.21899 6.64747 3.48466 6.65054 3.76273V21.1611C6.65054 21.4411 6.53495 21.7097 6.32918 21.9077C6.12342 22.1057 5.84435 22.2169 5.55336 22.2169V22.1945ZM9.41685 19.5212H9.14839C8.86049 19.5212 8.58439 19.4112 8.38082 19.2153C8.17725 19.0194 8.06288 18.7537 8.06288 18.4767V6.45841C8.06133 6.32029 8.08827 6.18325 8.14213 6.05521C8.19599 5.92718 8.27571 5.8107 8.37666 5.71251C8.47761 5.61432 8.5978 5.53637 8.73027 5.48317C8.86273 5.42998 9.00485 5.40259 9.14839 5.4026H9.41685C9.70581 5.40556 9.9819 5.5181 10.1851 5.71578C10.3884 5.91347 10.5024 6.18032 10.5024 6.45841V18.4767C10.5024 18.7537 10.388 19.0194 10.1844 19.2153C9.98085 19.4112 9.70475 19.5212 9.41685 19.5212ZM13.2803 16.7694H13.0352C12.7462 16.7694 12.4689 16.6597 12.2635 16.4641C12.0581 16.2686 11.9411 16.0029 11.938 15.7248V9.25518C11.9285 9.11096 11.9497 8.96639 12.0006 8.83041C12.0514 8.69443 12.1307 8.56995 12.2336 8.46465C12.3364 8.35936 12.4606 8.2755 12.5985 8.21828C12.7364 8.16106 12.8851 8.13168 13.0352 8.13198H13.292C13.583 8.13198 13.8621 8.24321 14.0678 8.44121C14.2736 8.63922 14.3892 8.90777 14.3892 9.18778V15.7024C14.3907 15.8419 14.3635 15.9804 14.3091 16.1098C14.2546 16.2392 14.174 16.357 14.072 16.4562C13.97 16.5554 13.8485 16.6342 13.7146 16.688C13.5807 16.7417 13.4371 16.7694 13.292 16.7694H13.2803ZM17.1555 14.3545H16.8987C16.6077 14.3545 16.3287 14.2433 16.1229 14.0453C15.9171 13.8473 15.8015 13.5787 15.8015 13.2987V11.6251C15.8046 11.3471 15.9216 11.0814 16.127 10.8858C16.3324 10.6902 16.6097 10.5805 16.8987 10.5806H17.1555C17.4445 10.5805 17.7218 10.6902 17.9272 10.8858C18.1327 11.0814 18.2496 11.3471 18.2527 11.6251V13.2987C18.2527 13.5768 18.1387 13.8436 17.9355 14.0413C17.7322 14.239 17.4561 14.3516 17.1672 14.3545H17.1555Z" fill="#4A5D69"/>
<rect x="5.29102" y="30" width="0.993275" height="1" fill="#4A5D69"/>
</svg>
