<svg width="134" height="31" viewBox="0 0 134 31" fill="none" xmlns="http://www.w3.org/2000/svg">
<path d="M39.2871 8.89968H42.6421V22.2133H39.2871V8.89968ZM43.9729 17.1864C43.9729 13.8937 46.0306 11.929 49.2066 11.929C52.3826 11.929 54.4403 13.8937 54.4403 17.1864C54.4403 20.4792 52.4273 22.4548 49.2066 22.4548C45.9858 22.4548 43.9729 20.534 43.9729 17.1864ZM51.0742 17.1864C51.0742 15.3754 50.3473 14.3108 49.2066 14.3108C48.0659 14.3108 47.3502 15.4083 47.3502 17.1864C47.3502 18.9645 48.0547 20.0401 49.2066 20.0401C50.3585 20.0401 51.0742 19.0304 51.0742 17.1974V17.1864ZM55.704 22.8609H58.9248C59.078 23.1951 59.3372 23.4718 59.6636 23.6498C59.9901 23.8278 60.3663 23.8976 60.7364 23.8487C62.0113 23.8487 62.6823 23.1682 62.6823 22.1804V20.3365H62.6152C62.3479 20.9016 61.9142 21.3752 61.37 21.696C60.8258 22.0169 60.1961 22.1703 59.5622 22.1365C57.1131 22.1365 55.4915 20.3036 55.4915 17.1535C55.4915 14.0034 57.0348 12.0168 59.6069 12.0168C60.2607 11.9917 60.9067 12.1632 61.4583 12.5085C62.01 12.8537 62.441 13.3562 62.6935 13.9486V12.1156H66.0485V22.1036C66.0485 24.5073 63.8901 26 60.7029 26C57.7393 26 55.8941 24.6939 55.704 22.8719V22.8609ZM62.6935 17.1754C62.6935 15.573 61.9442 14.5632 60.7588 14.5632C59.5734 14.5632 58.8465 15.562 58.8465 17.1754C58.8465 18.7889 59.5622 19.6999 60.7588 19.6999C61.9554 19.6999 62.6935 18.8108 62.6935 17.1864V17.1754ZM67.3122 17.1754C67.3122 13.8827 69.3699 11.918 72.5459 11.918C75.7219 11.918 77.7908 13.8827 77.7908 17.1754C77.7908 20.4682 75.7778 22.4438 72.5459 22.4438C69.3139 22.4438 67.3122 20.534 67.3122 17.1864V17.1754ZM74.4135 17.1754C74.4135 15.3644 73.6866 14.2998 72.5459 14.2998C71.4052 14.2998 70.7454 15.4083 70.7454 17.1974C70.7454 18.9865 71.4499 20.0511 72.5906 20.0511C73.7313 20.0511 74.4135 19.0304 74.4135 17.1974V17.1754ZM79.0657 9.72287C79.0569 9.39042 79.1489 9.06289 79.33 8.78181C79.5111 8.50072 79.7731 8.27874 80.0829 8.144C80.3927 8.00926 80.7363 7.96783 81.0701 8.02497C81.4039 8.0821 81.7129 8.23522 81.9579 8.46492C82.203 8.69462 82.373 8.99056 82.4464 9.31521C82.5199 9.63986 82.4935 9.97861 82.3706 10.2885C82.2477 10.5984 82.0337 10.8655 81.756 11.056C81.4782 11.2464 81.149 11.3516 80.8102 11.3583C80.5857 11.3734 80.3603 11.3428 80.1484 11.2684C79.9364 11.194 79.7424 11.0773 79.5786 10.9258C79.4148 10.7743 79.2846 10.5912 79.1964 10.3879C79.1081 10.1847 79.0636 9.96574 79.0657 9.74482V9.72287ZM79.0657 12.1375H82.4206V22.2133H79.0657V12.1375ZM94.5991 17.1754C94.5991 20.4682 93.1117 22.3451 90.562 22.3451C89.9082 22.3862 89.2572 22.2294 88.6972 21.8957C88.1372 21.562 87.6951 21.0675 87.4307 20.4792H87.3636V25.4402H84.0086V12.1156H87.3636V13.9156H87.4307C87.6828 13.3176 88.1164 12.8102 88.6727 12.4626C89.229 12.115 89.8808 11.944 90.5396 11.9729C93.1117 12.0168 94.6438 13.9047 94.6438 17.1974L94.5991 17.1754ZM91.2442 17.1754C91.2442 15.573 90.4949 14.5522 89.3206 14.5522C88.1464 14.5522 87.3971 15.584 87.386 17.1754C87.3748 18.7669 88.1464 19.7877 89.3206 19.7877C90.4949 19.7877 91.2442 18.7889 91.2442 17.1974V17.1754ZM100.358 11.9071C103.143 11.9071 104.832 13.2022 104.91 15.2766H101.857C101.857 14.5632 101.253 14.1132 100.325 14.1132C99.3967 14.1132 98.9829 14.4644 98.9829 14.9803C98.9829 15.4961 99.352 15.6608 100.101 15.8144L102.248 16.2425C104.295 16.6706 105.167 17.4828 105.167 19.0084C105.167 21.0938 103.233 22.4329 100.381 22.4329C97.5291 22.4329 95.6615 21.0938 95.5161 19.0413H98.7481C98.8487 19.7877 99.4526 20.2267 100.437 20.2267C101.421 20.2267 101.868 19.9084 101.868 19.3816C101.868 18.8547 101.555 18.745 100.75 18.5803L98.8152 18.1742C96.8134 17.7681 95.7622 16.7254 95.7622 15.1888C95.7845 13.2132 97.585 11.929 100.358 11.929V11.9071ZM116.362 22.1914H113.13V20.3145H113.063C112.885 20.9447 112.493 21.4962 111.952 21.8776C111.411 22.2589 110.753 22.4471 110.088 22.4109C109.578 22.4393 109.068 22.3601 108.592 22.1784C108.116 21.9968 107.686 21.7171 107.33 21.3581C106.973 20.9991 106.7 20.5693 106.528 20.0977C106.355 19.6261 106.288 19.1236 106.33 18.6243V12.1156H109.685V17.8669C109.685 19.0633 110.311 19.6999 111.352 19.6999C111.595 19.7004 111.837 19.6497 112.059 19.5512C112.281 19.4528 112.479 19.3088 112.64 19.129C112.801 18.9492 112.921 18.7377 112.992 18.5086C113.063 18.2796 113.083 18.0384 113.051 17.8011V12.1156H116.406L116.362 22.1914ZM117.983 12.1156H121.226V14.0583H121.293C121.471 13.4365 121.854 12.8902 122.383 12.5049C122.911 12.1196 123.554 11.9171 124.212 11.929C124.882 11.8764 125.547 12.073 126.075 12.4798C126.603 12.8865 126.956 13.4736 127.064 14.1242H127.131C127.334 13.4667 127.754 12.8941 128.325 12.4966C128.896 12.0992 129.585 11.8995 130.285 11.929C130.741 11.914 131.195 11.9933 131.618 12.1619C132.041 12.3304 132.423 12.5844 132.74 12.9074C133.056 13.2304 133.3 13.6151 133.455 14.0365C133.61 14.4579 133.673 14.9066 133.64 15.3535V22.2133H130.285V16.2315C130.285 15.1339 129.781 14.6291 128.842 14.6291C128.633 14.6273 128.425 14.6697 128.234 14.7533C128.042 14.837 127.871 14.9599 127.733 15.1139C127.594 15.2678 127.49 15.4492 127.429 15.6458C127.367 15.8424 127.35 16.0496 127.377 16.2535V22.2133H124.19V16.1876C124.19 15.1778 123.687 14.6291 122.77 14.6291C122.558 14.6291 122.348 14.6733 122.155 14.7586C121.962 14.8439 121.789 14.9685 121.649 15.1241C121.508 15.2796 121.403 15.4627 121.34 15.6612C121.276 15.8596 121.257 16.069 121.282 16.2754V22.2133H117.927L117.983 12.1156Z" fill="#4A5D69"/>
<path d="M29.1169 9.36267C28.5579 8.0326 27.8181 6.79309 26.9201 5.68215C25.5926 3.99087 23.936 2.61131 22.0593 1.63427C20.1826 0.657235 18.1283 0.104871 16.0317 0.0135342C13.9351 -0.0778021 11.8436 0.293958 9.89499 1.10435C7.94637 1.91474 6.18477 3.14539 4.72613 4.7153C3.26748 6.28521 2.14487 8.15878 1.43218 10.2127C0.719482 12.2666 0.432863 14.4543 0.591187 16.6318C0.749511 18.8093 1.34919 20.9273 2.35075 22.8462C3.35231 24.7652 4.73304 26.4416 6.40207 27.7653C7.47301 28.6315 8.65636 29.3358 9.91693 29.857C11.6843 30.6107 13.5758 30.9989 15.4858 31C19.4284 30.9909 23.2066 29.3555 25.9924 26.4523C28.7782 23.5491 30.3442 19.6149 30.3471 15.5121C30.35 13.3958 29.9311 11.3019 29.1169 9.36267ZM15.4748 3.15608C17.19 3.15588 18.8845 3.546 20.4395 4.29909C20.0603 4.4696 19.6617 4.58868 19.2533 4.65343C17.9095 4.85585 16.6647 5.50507 15.7046 6.50417C14.7445 7.50328 14.1206 8.79869 13.9261 10.1971C13.8407 10.9813 13.4979 11.7109 12.9557 12.2627C12.4134 12.8145 11.7048 13.1548 10.9494 13.2261C9.60564 13.4285 8.3608 14.0777 7.4007 15.0768C6.4406 16.0759 5.81673 17.3713 5.62221 18.7697C5.55635 19.5154 5.25061 20.2162 4.75448 20.7586C3.89845 18.8763 3.5139 16.7993 3.63661 14.7208C3.75932 12.6423 4.38531 10.6299 5.45632 8.87088C6.52732 7.11183 8.00854 5.66331 9.76213 4.66012C11.5157 3.65692 13.4847 3.13166 15.4858 3.13321L15.4748 3.15608ZM6.39109 23.5132C6.52289 23.3875 6.6547 23.2732 6.78651 23.136C7.7637 22.1501 8.39095 20.8487 8.5659 19.4441C8.63684 18.6545 8.9756 17.9171 9.52151 17.3638C10.0468 16.7948 10.7539 16.4452 11.5096 16.3808C12.8534 16.1784 14.0982 15.5292 15.0583 14.5301C16.0184 13.5309 16.6423 12.2355 16.8368 10.8372C16.8843 10.0113 17.2249 9.23332 17.7924 8.654C18.3307 8.09603 19.0445 7.75913 19.8025 7.70529C21.037 7.52854 22.1883 6.95743 23.0977 6.07078C24.1331 6.9647 25.0103 8.04008 25.6899 9.24837C25.6481 9.30706 25.6002 9.36073 25.5471 9.40839C25.0228 9.98241 24.3166 10.3397 23.559 10.4142C22.2138 10.6131 20.9671 11.2612 20.0064 12.261C19.0457 13.2607 18.4229 14.5581 18.2318 15.9579C18.1544 16.7448 17.8179 17.4796 17.2794 18.0379C16.7409 18.5962 16.0335 18.9435 15.2771 19.0212C13.9294 19.222 12.6799 19.87 11.7142 20.8687C10.7486 21.8674 10.1183 23.1636 9.91693 24.5648C9.85782 25.1234 9.67346 25.6598 9.37871 26.1307C8.25176 25.4345 7.24244 24.5502 6.39109 23.5132ZM15.4748 27.9253C14.3602 27.9265 13.251 27.7649 12.1796 27.4452C12.5461 26.7343 12.7844 25.9595 12.8826 25.1592C12.9596 24.374 13.2944 23.6406 13.8307 23.0825C14.367 22.5245 15.0718 22.176 15.8263 22.0959C17.1721 21.8957 18.4194 21.2475 19.3816 20.2482C20.3439 19.2489 20.9694 17.9523 21.1645 16.5523C21.2415 15.7671 21.5763 15.0337 22.1126 14.4756C22.6489 13.9175 23.3537 13.5691 24.1082 13.489C25.1209 13.3519 26.0862 12.9595 26.9201 12.3459C27.3831 14.1724 27.438 16.0849 27.0804 17.9368C26.7229 19.7888 25.9624 21.5309 24.8574 23.0295C23.7524 24.5281 22.3323 25.7434 20.7058 26.5821C19.0794 27.4209 17.29 27.8608 15.4748 27.8681V27.9253Z" fill="#4A5D69"/>
<rect x="18.4287" y="29" width="0.993275" height="1" fill="#4A5D69"/>
</svg>
