<svg width="143" height="33" viewBox="0 0 143 33" fill="none" xmlns="http://www.w3.org/2000/svg">
<path d="M41.5381 10.0091H45.1226V24.7483H41.5381V10.0091ZM46.5519 19.2041C46.5519 15.5533 48.7853 13.3651 52.1353 13.3651C55.4853 13.3651 57.7186 15.5533 57.7186 19.2041C57.7186 22.8549 55.5635 25.0658 52.1353 25.0658C48.7071 25.0658 46.5519 22.9342 46.5519 19.2041ZM54.1676 19.2041C54.1676 17.1973 53.3971 16.0181 52.1688 16.0181C50.9405 16.0181 50.1811 17.1519 50.1811 19.2041C50.1811 21.2562 50.9405 22.3787 52.1688 22.3787C53.3971 22.3787 54.19 21.2562 54.19 19.2154L54.1676 19.2041ZM59.148 25.5079H62.6097C62.7673 25.8863 63.0425 26.202 63.3933 26.4067C63.7441 26.6114 64.1513 26.694 64.5527 26.6417C65.9262 26.6417 66.6408 25.8934 66.6408 24.7823V22.7415H66.652C66.3562 23.377 65.8779 23.9066 65.2799 24.2608C64.6819 24.6149 63.9924 24.777 63.302 24.7256C60.6778 24.7256 58.9358 22.6961 58.9358 19.2041C58.9358 15.712 60.5997 13.5351 63.4025 13.5351C64.1106 13.4967 64.813 13.6821 65.413 14.0659C66.013 14.4497 66.481 15.0129 66.7525 15.678H66.652V13.6259H70.203V24.6689C70.203 27.3333 67.8803 29 64.4633 29C61.359 28.9887 59.3713 27.5488 59.1703 25.5193L59.148 25.5079ZM66.652 19.2041C66.652 17.424 65.848 16.3016 64.575 16.3016C63.302 16.3016 62.5203 17.4354 62.5203 19.2041C62.5203 20.9728 63.2908 22.0159 64.575 22.0159C65.8592 22.0159 66.652 21.0522 66.652 19.2041ZM71.6212 19.2041C71.6212 15.5533 73.8545 13.3651 77.2045 13.3651C80.5546 13.3651 82.7879 15.5533 82.7879 19.2041C82.7879 22.8549 80.6216 25.0658 77.2045 25.0658C73.7875 25.0658 71.6435 22.9342 71.6435 19.2041H71.6212ZM79.2369 19.2041C79.2369 17.1973 78.4552 16.0181 77.2381 16.0181C76.0209 16.0181 75.2504 17.1519 75.2504 19.2041C75.2504 21.2562 76.0097 22.3787 77.2381 22.3787C78.4664 22.3787 79.2592 21.2562 79.2592 19.2154L79.2369 19.2041ZM84.2396 10.9388C84.224 10.568 84.318 10.2011 84.5095 9.88503C84.701 9.56899 84.9813 9.31836 85.3142 9.16538C85.6472 9.01239 86.0176 8.96406 86.3779 9.02659C86.7381 9.08912 87.0717 9.25966 87.3357 9.51626C87.5997 9.77286 87.782 10.1038 87.8592 10.4665C87.9365 10.8292 87.905 11.207 87.769 11.5514C87.633 11.8958 87.3986 12.191 87.096 12.3991C86.7934 12.6071 86.4364 12.7185 86.0709 12.7188C85.8374 12.7248 85.6049 12.6837 85.3872 12.5978C85.1694 12.5119 84.9706 12.3829 84.8023 12.2184C84.634 12.0538 84.4996 11.857 84.4068 11.6393C84.314 11.4216 84.2648 11.1873 84.2619 10.9501L84.2396 10.9388ZM84.2396 13.6145H87.8688V24.7937H84.2954L84.2396 13.6145ZM100.923 19.2041C100.923 22.8435 99.3146 24.9524 96.5788 24.9524C95.8784 24.9962 95.1816 24.8208 94.5825 24.4498C93.9834 24.0787 93.5109 23.5299 93.2288 22.8776H93.1618V28.3878H89.5773V13.6485H93.1394V15.644H93.2064C93.4789 14.9788 93.9468 14.415 94.5462 14.0295C95.1457 13.644 95.8477 13.4556 96.5564 13.4898C99.3705 13.4671 100.99 15.5646 100.99 19.2154L100.923 19.2041ZM97.2711 19.2041C97.2711 17.4354 96.4559 16.2902 95.1941 16.2902C93.9323 16.2902 93.1394 17.424 93.1283 19.2041C93.1171 20.9841 93.9323 22.1066 95.1941 22.1066C96.4559 22.1066 97.3381 21.0522 97.3381 19.2154L97.2711 19.2041ZM107.042 13.3537C110.046 13.3537 111.911 14.7937 111.933 17.1066H108.661C108.661 16.3016 108.002 15.8027 107.02 15.8027C106.037 15.8027 105.568 16.1882 105.568 16.7664C105.568 17.3447 105.981 17.5261 106.807 17.6961L109.108 18.1723C111.341 18.6485 112.235 19.5556 112.235 21.2449C112.235 23.5125 110.169 25.0544 107.098 25.0544C104.027 25.0544 102.028 23.5578 101.883 21.2789H105.356C105.456 22.1066 106.104 22.5941 107.154 22.5941C108.203 22.5941 108.695 22.254 108.695 21.6531C108.695 21.0522 108.36 20.9501 107.5 20.7687L105.423 20.3265C103.268 19.8617 102.14 18.7166 102.14 17.0045C102.207 14.7823 104.083 13.3651 107.109 13.3651L107.042 13.3537ZM124.239 24.7823H120.766V22.6848H120.699C120.504 23.3844 120.081 23.9959 119.498 24.4184C118.916 24.8409 118.209 25.0493 117.494 25.0091C116.954 25.0269 116.417 24.9287 115.917 24.7208C115.418 24.5129 114.967 24.2001 114.595 23.8029C114.222 23.4057 113.937 22.9331 113.757 22.416C113.578 21.8989 113.508 21.3492 113.552 20.8027V13.6259H117.137V20.0204C117.137 21.3356 117.818 22.0499 118.935 22.0499C119.197 22.0479 119.455 21.9888 119.693 21.8767C119.93 21.7646 120.141 21.602 120.312 21.4C120.482 21.198 120.608 20.9611 120.68 20.7055C120.753 20.4499 120.771 20.1815 120.732 19.9184V13.6259H124.306L124.239 24.7823ZM125.97 13.6145H129.454V15.7687H129.532C129.724 15.0786 130.137 14.4728 130.704 14.0461C131.272 13.6194 131.963 13.3958 132.67 13.4104C133.379 13.3478 134.085 13.556 134.651 13.9942C135.217 14.4325 135.601 15.0692 135.729 15.78H135.886C136.109 15.0654 136.558 14.4457 137.164 14.0172C137.77 13.5887 138.498 13.3754 139.236 13.4104C139.726 13.3915 140.214 13.4779 140.669 13.6639C141.124 13.8499 141.536 14.1314 141.876 14.49C142.217 14.8485 142.479 15.276 142.645 15.7445C142.812 16.213 142.879 16.7119 142.842 17.2086V24.7937H139.236V18.1383C139.236 17.0045 138.711 16.3696 137.695 16.3696C137.469 16.3659 137.246 16.4116 137.039 16.5038C136.833 16.596 136.649 16.7323 136.499 16.9036C136.35 17.0748 136.238 17.2768 136.173 17.4958C136.108 17.7148 136.089 17.9456 136.12 18.1723V24.7937H132.703V18.1043C132.703 16.9705 132.156 16.3696 131.173 16.3696C130.946 16.3678 130.72 16.4154 130.512 16.5093C130.304 16.6033 130.118 16.7413 129.967 16.9142C129.815 17.0871 129.702 17.2908 129.635 17.5117C129.568 17.7326 129.548 17.9656 129.576 18.195V24.7937H125.992L125.97 13.6145Z" fill="#4A5D69"/>
<path d="M34.5838 11.0376C34.584 8.8142 33.8992 6.64261 32.6192 4.80726C31.3391 2.97191 29.5236 1.55838 27.4104 0.751821C25.2971 -0.0547394 22.9847 -0.216723 20.7759 0.287085C18.5672 0.790894 16.5651 1.937 15.032 3.57529H0.8125V33H30.8353V19.2484C32.0136 18.215 32.9565 16.9496 33.6025 15.5349C34.2484 14.1201 34.5828 12.5877 34.5838 11.0376ZM28.8072 11.0376C28.8094 12.103 28.4892 13.1452 27.8872 14.0321C27.2851 14.919 26.4282 15.6109 25.4249 16.0202C24.4216 16.4294 23.317 16.5376 22.2509 16.3311C21.1849 16.1246 20.2053 15.6127 19.4361 14.8601C18.6669 14.1075 18.1427 13.1481 17.9299 12.1033C17.717 11.0586 17.8251 9.97534 18.2405 8.99081C18.6558 8.00627 19.3597 7.16467 20.2631 6.57252C21.1664 5.98037 22.2287 5.66429 23.3153 5.66429C24.7699 5.66429 26.165 6.23004 27.1946 7.23741C28.2242 8.24479 28.8041 9.61148 28.8072 11.0376ZM25.0586 27.3363H6.58918V9.23905H12.2177C12.109 9.83275 12.0518 10.4344 12.0468 11.0376C12.0498 13.9669 13.238 16.7753 15.3506 18.8466C17.4632 20.9179 20.3277 22.0829 23.3153 22.0858C23.8994 22.0828 24.4823 22.0342 25.0586 21.9406V27.3363Z" fill="#4A5D69"/>
<rect x="29.6172" y="31" width="0.993275" height="1" fill="#4A5D69"/>
</svg>
